<svg width="1200" height="720" viewBox="0 0 1200 720" fill="none" xmlns="http://www.w3.org/2000/svg">
  <rect width="1200" height="720" rx="40" fill="#0F172A"/>
  <circle cx="990" cy="134" r="180" fill="#0052FF" fill-opacity="0.18"/>
  <circle cx="240" cy="620" r="220" fill="#4D7CFF" fill-opacity="0.14"/>
  <rect x="124" y="130" width="540" height="420" rx="36" fill="white" fill-opacity="0.08" stroke="white" stroke-opacity="0.14"/>
  <rect x="180" y="210" width="280" height="24" rx="12" fill="url(#paint0_linear_1_2)"/>
  <rect x="180" y="260" width="360" height="16" rx="8" fill="white" fill-opacity="0.72"/>
  <rect x="180" y="294" width="284" height="16" rx="8" fill="white" fill-opacity="0.38"/>
  <rect x="180" y="370" width="220" height="118" rx="22" fill="#0052FF" fill-opacity="0.14"/>
  <rect x="426" y="370" width="182" height="118" rx="22" fill="#4D7CFF" fill-opacity="0.18"/>
  <rect x="734" y="172" width="294" height="214" rx="32" fill="url(#paint1_linear_1_2)"/>
  <path d="M828 228C855.614 228 878 250.386 878 278C878 305.614 855.614 328 828 328C800.386 328 778 305.614 778 278C778 250.386 800.386 228 828 228Z" fill="white" fill-opacity="0.18"/>
  <path d="M934 248H1004" stroke="white" stroke-opacity="0.82" stroke-width="16" stroke-linecap="round"/>
  <path d="M934 286H986" stroke="white" stroke-opacity="0.42" stroke-width="14" stroke-linecap="round"/>
  <rect x="764" y="454" width="250" height="110" rx="30" fill="white" fill-opacity="0.08" stroke="white" stroke-opacity="0.14"/>
  <text x="180" y="164" fill="white" fill-opacity="0.86" font-size="26" font-family="Arial, sans-serif">云端协同升级</text>
  <defs>
    <linearGradient id="paint0_linear_1_2" x1="180" y1="210" x2="460" y2="234" gradientUnits="userSpaceOnUse">
      <stop stop-color="#0052FF"/>
      <stop offset="1" stop-color="#4D7CFF"/>
    </linearGradient>
    <linearGradient id="paint1_linear_1_2" x1="734" y1="172" x2="1028" y2="386" gradientUnits="userSpaceOnUse">
      <stop stop-color="#0052FF"/>
      <stop offset="1" stop-color="#4D7CFF"/>
    </linearGradient>
  </defs>
</svg>
